# AST/ASF file generated using VICON BodyLanguage
# -----------------------------------------------
:version 1.10
:name VICON
:units
  mass 1.0
  length 0.45
  angle deg
:documentation
   .ast/.asf automatically generated from VICON data using
   VICON BodyBuilder and BodyLanguage model FoxedUp or BRILLIANT.MOD
:root
   order TX TY TZ RX RY RZ
   axis XYZ
   position 0 0 0  
   orientation 0 0 0 
:bonedata
  begin
     id 1 
     name lhipjoint
     direction 0.596438 -0.722117 0.35044 
     length 2.43043 
     axis 0 0 0  XYZ
  end
  begin
     id 2 
     name lfemur
     direction 0.34202 -0.939693 0  
     length 7.0339  
     axis 0 0 20  XYZ
    dof rx ry rz
    limits (-160.0 20.0)
           (-70.0 70.0)
           (-60.0 70.0)
  end
  begin
     id 3 
     name ltibia
     direction 0.34202 -0.939693 0   
     length 7.56602   
     axis 0 0 20   XYZ
    dof rx
    limits (-10.0 170.0)
  end
  begin
     id 4 
     name lfoot
     direction 0.0985677 -0.270812 0.957572   
     length 1.85172   
     axis -90 7.62852e-016 20   XYZ
    dof rx rz
    limits (-45.0 90.0)
           (-70.0 20.0)
  end
  begin
     id 5 
     name ltoes
     direction 1.53534e-011 -4.21843e-011 1   
     length 0.929904   
     axis -90 7.62852e-016 20   XYZ
    dof rx
    limits (-90.0 20.0)
  end
  begin
     id 6 
     name rhipjoint
     direction -0.585088 -0.729594 0.354068   
     length 2.40552  
     axis 0 0 0  XYZ 
  end
  begin
     id 7 
     name rfemur
     direction -0.34202 -0.939693 0   
     length 7.12573   
     axis 0 0 -20   XYZ
    dof rx ry rz
    limits (-160.0 20.0)
           (-70.0 70.0)
           (-70.0 60.0)
  end
  begin
     id 8 
     name rtibia
     direction -0.34202 -0.939693 0   
     length 7.35777   
     axis 0 0 -20   XYZ
    dof rx
    limits (-10.0 170.0)
 end
 begin
     id 9 
     name rfoot
     direction -0.120907 -0.33219 0.935431   
     length 2.0994  
     axis -90 -7.62852e-016 -20   XYZ
    dof rx rz
    limits (-45.0 90.0)
           (-20.0 70.0)
  end
  begin
     id 10 
     name rtoes
     direction -1.53577e-011 -4.21787e-011 1   
     length 1.04244   
     axis -90 -7.62852e-016 -20   XYZ
    dof rx
    limits (-90.0 20.0)
  end
  begin
     id 11 
     name lowerback
     direction 0.00268363 0.993603 -0.112896   
     length 2.15839   
     axis 0 0 0   XYZ
    dof rx ry rz
    limits (-20.0 45.0)
           (-30.0 30.0)
           (-30.0 30.0)
  end
  begin
     id 12 
     name upperback
     direction 0.0272563 0.999411 -0.0208618   
     length 2.16443   
     axis 0 0 0   XYZ
    dof rx ry rz
    limits (-20.0 45.0)
           (-30.0 30.0)
           (-30.0 30.0)
  end
  begin
     id 13 
     name thorax
     direction 0.0254655 0.999174 0.0316806   
     length 2.19003   
     axis 0 0 0   XYZ
    dof rx ry rz
    limits (-20.0 45.0)
           (-30.0 30.0)
           (-30.0 30.0)
  end
  begin
     id 14 
     name lowerneck
     direction -0.0102178 0.988048 0.15381   
     length 1.61507   
     axis 0 0 0   XYZ
    dof rx ry rz
    limits (-20.0 45.0)
           (-30.0 30.0)
           (-30.0 30.0)
  end
  begin
     id 15 
     name upperneck
     direction -0.0061965 0.994088 -0.108398   
     length 1.64042   
     axis 0 0 0   XYZ
    dof rx ry rz
    limits (-20.0 45.0)
           (-30.0 30.0)
           (-30.0 30.0)
  end
  begin
     id 16
     name head
     direction -0.00151929 0.998591 -0.0530385  
     length 1.64343  
     axis 0 0 0   XYZ
    dof rx ry rz
    limits (-20.0 45.0)
           (-30.0 30.0)
           (-30.0 30.0)
  end
  begin
     id 17 
     name lclavicle
     direction 0.948974 0.284245 -0.136574  
     length 3.3483  
     axis 0 0 0   XYZ
    dof ry rz
    limits (-20.0 10.0)
           (0.0 20.0)
  end
  begin
     id 18 
     name lhumerus
     direction 1 -4.48961e-011 1.68576e-027   
     length 4.93485   
     axis -180 -30 -90   XYZ
    dof rx ry rz
    limits (-60.0 90.0)
           (-90.0 90.0)
           (-90.0 90.0)
  end
  begin
     id 19
     name lradius
     direction 1 -4.48965e-011 -2.46405e-027   
     length 3.41719   
     axis -180 -30 -90   XYZ
    dof rx
    limits (-10.0 170.0)
  end
  begin
     id 20
     name lwrist
     direction 1 -4.48968e-011 -8.00486e-028   
     length 1.7086   
     axis 3.27501e-015 90 90   XYZ
    dof ry
    limits (-180.0 0.0)
 end
  begin
     id 21 
     name lhand
     direction 1 -4.48977e-011 -1.60161e-027   
     length 0.6241   
     axis 1.02148e-015 90 90   XYZ
    dof rx rz
    limits (-90.0 90.0)
           (-45.0 45.0)
  end
  begin
     id 22 
     name lfingers
     direction 1 -4.49049e-011 -3.21275e-027   
     length 0.503166   
     axis 2.04295e-015 90 90   XYZ
    dof rx
    limits (0.0 90.0)
  end
  begin
     id 23
     name lthumb
     direction 0.707107 -6.34975e-011 0.707107   
     length 0.722448   
     axis -90 45 -1.62303e-014   XYZ
    dof rx rz
    limits (-45.0 45.0)
           (-45.0 45.0)
  end
  begin
     id 24 
     name rclavicle
     direction -0.904485 0.355099 -0.236246   
     length 3.18329  
     axis 0 0 0   XYZ 
    dof ry rz
    limits (-10.0 20.0)
           (-20.0 0.0)
  end
  begin
     id 25 
     name rhumerus
     direction -1 -4.48953e-011 1.32816e-027  
     length 5.22034   
     axis -180 30 90   XYZ
    dof rx ry rz
    limits (-90.0 60.0)
           (-90.0 90.0)
           (-90.0 90.0)
  end
  begin
     id 26 
     name rradius
     direction -1 -4.48965e-011 -3.93727e-027   
     length 3.41809   
     axis -180 30 90   XYZ
    dof rx
    limits (-10.0 170.0)
  end
  begin
     id 27 
     name rwrist
     direction -1 -4.48962e-011 -8.003e-028   
     length 1.70904   
     axis 3.27501e-015 -90 -90   XYZ
    dof ry
    limits (-180.0 0.0)
  end
  begin
     id 28
     name rhand
     direction -1 -4.49008e-011 -1.60365e-027   
     length 0.77534   
     axis 1.02148e-015 -90 -90   XYZ
    dof rx rz
    limits (-90.0 90.0)
           (-45.0 45.0)
  end
  begin
     id 29
     name rfingers
     direction -1 -4.49001e-011 -3.2064e-027   
     length 0.625099   
     axis 2.04295e-015 -90 -90   XYZ
    dof rx
    limits (0.0 90.0)
  end
  begin
     id 30
     name rthumb
     direction -0.707107 -6.34989e-011 0.707107   
     length 0.897521   
     axis -90 -45 1.62303e-014   XYZ
    dof rx rz
    limits (-45.0 45.0)
           (-45.0 45.0)
  end
:hierarchy
  begin
    root lhipjoint rhipjoint lowerback
    lhipjoint lfemur
    lfemur ltibia
    ltibia lfoot
    lfoot ltoes
    rhipjoint rfemur
    rfemur rtibia
    rtibia rfoot
    rfoot rtoes
    lowerback upperback
    upperback thorax
    thorax lowerneck lclavicle rclavicle
    lowerneck upperneck
    upperneck head
    lclavicle lhumerus
    lhumerus lradius
    lradius lwrist
    lwrist lhand lthumb
    lhand lfingers
    rclavicle rhumerus
    rhumerus rradius
    rradius rwrist
    rwrist rhand rthumb
    rhand rfingers
  end

#!OML:ASF \\sashay\E\Suitcase\Project 1\Capture day 1\Session 1\Male1.ASF
:FULLY-SPECIFIED
:DEGREES
622
root 0.0238489 17.352 -10.8119 11.7952 4.9259 -5.25888
lowerback 2.78757 0.91215 5.06247
upperback 0.394203 1.4062 2.90371
thorax -1.11005 0.686983 0.0961638
lowerneck -12.3923 -0.834503 -5.40018
upperneck 26.1139 0.225342 -0.258209
head 10.4056 -0.437493 0.860158
rclavicle -7.65321e-015 2.90226e-014
rhumerus -53.7915 -40.2714 -42.5705
rradius 10.7188
rwrist 13.6176
rhand -5.97536 11.1796
rfingers 7.12502
rthumb 19.856 -17.8261
lclavicle -7.65321e-015 2.90226e-014
lhumerus -44.37 8.31995 75.4951
lradius 29.7575
lwrist -2.67587
lhand -0.282473 42.8761
lfingers 7.12502
lthumb 25.3198 71.2155
rfemur 7.99268 -1.03915 32.1779
rtibia 2.54444e-014
rfoot -13.2712 -8.61502
rtoes 6.27447
lfemur -42.5825 -1.5599 -18.0685
ltibia 25.2597
lfoot -18.1479 -2.34835
ltoes -1.82041
623
root 0.017513 17.334 -10.6738 11.8231 4.59724 -5.42759
lowerback 2.81359 1.14091 4.91927
upperback 0.365371 1.70974 2.89149
thorax -1.14746 0.837959 0.151882
lowerneck -12.2799 -0.926522 -5.10333
upperneck 26.1527 0.0513878 -0.375783
head 10.4014 -0.501639 0.74661
rclavicle -4.86029e-014 -3.45885e-014
rhumerus -53.9514 -39.9762 -42.8035
rradius 10.8325
rwrist 12.9067
rhand -6.05282 10.9515
rfingers 7.12502
rthumb 19.7816 -18.0619
lclavicle -4.86029e-014 -3.45885e-014
lhumerus -44.493 8.6188 74.9688
lradius 29.2367
lwrist -2.96077
lhand 0.129465 43.3191
lfingers 7.12502
lthumb 25.7144 71.6019
rfemur 8.48726 -1.1143 32.3022
rtibia 3.18055e-015
rfoot -13.1816 -8.2129
rtoes 5.73135
lfemur -42.6874 -0.877627 -18.4026
ltibia 25.3505
lfoot -18.0613 -1.99211
ltoes -1.98988
624
root 0.0291178 17.3156 -10.5384 12.0854 4.27762 -5.34906
lowerback 2.90032 1.10926 4.88
upperback 0.171885 1.68084 2.75841
thorax -1.39336 0.816669 0.0336204
lowerneck -12.4085 -0.795694 -5.02856
upperneck 26.3905 0.240425 -0.410539
head 10.5089 -0.417672 0.745475
rclavicle -4.17448e-015 -1.82882e-014
rhumerus -53.3578 -39.1587 -43.8173
rradius 10.7288
rwrist 12.3961
rhand -6.23117 10.5929
rfingers 7.12502
rthumb 19.6101 -18.438
lclavicle -4.17448e-015 -1.82882e-014
lhumerus -45.2468 8.93669 74.4414
lradius 29.3171
lwrist -2.97681
lhand 0.244514 42.7376
lfingers 7.12502
lthumb 25.8246 71.0045
rfemur 8.73637 -1.19638 32.0817
rtibia -9.54166e-015
rfoot -13.0009 -7.82745
rtoes 4.88451
lfemur -42.9198 -0.229383 -19.1265
ltibia 25.4045
lfoot -17.7873 -1.69056
ltoes -1.88027
625
root 0.0415163 17.2933 -10.4069 12.02 4.25427 -5.78687
lowerback 2.98182 1.12953 5.276
upperback 0.17974 1.72895 2.90773
thorax -1.42258 0.838029 -0.0364635
lowerneck -12.2926 -0.804044 -5.05882
upperneck 26.3644 0.253345 -0.50314
head 10.4773 -0.424545 0.719214
rclavicle -1.21259e-014 -1.23246e-014
rhumerus -54.4595 -40.0403 -41.9851
rradius 10.5112
rwrist 13.8721
rhand -5.75547 10.9846
rfingers 7.12502
rthumb 20.0674 -17.999
lclavicle -1.21259e-014 -1.23246e-014
lhumerus -45.2572 9.72963 73.9847
lradius 28.5329
lwrist -3.63879
lhand 0.225376 42.4766
lfingers 7.12502
lthumb 25.8062 70.7462
rfemur 9.27058 -1.51905 32.4545
rtibia -1.59028e-014
rfoot -12.8088 -7.45318
rtoes 3.91081
lfemur -42.9165 0.436013 -19.3304
ltibia 25.604
lfoot -17.4452 -1.71098
ltoes -1.30292
626
root 0.0559597 17.2822 -10.2569 12.0609 3.57053 -5.53332
lowerback 2.93225 1.40067 4.88039
upperback 0.241188 2.06686 2.7378
thorax -1.32569 1.011 -0.00184306
lowerneck -12.3933 -0.893761 -4.90691
upperneck 26.403 0.110867 -0.55038
head 10.5142 -0.481169 0.658671
rclavicle 1.28216e-014 1.78906e-014
rhumerus -54.6831 -40.1763 -41.7797
rradius 10.4552
rwrist 13.8684
rhand -5.8757 11.1232
rfingers 7.12502
rthumb 19.9518 -17.8726
lclavicle 1.28216e-014 1.78906e-014
lhumerus -45.5627 9.35546 73.9643
lradius 28.6846
lwrist -3.39603
lhand 0.285716 43.6194
lfingers 7.12502
lthumb 25.864 71.8806
rfemur 9.81113 -1.33381 31.9371
rtibia -3.49861e-014
rfoot -12.5063 -7.09976
rtoes 2.76017
lfemur -42.7031 0.704961 -19.9069
ltibia 25.7854
lfoot -17.3008 -0.933479
ltoes -0.535349
627
root 0.0602171 17.2635 -10.112 11.9622 3.29057 -5.68662
lowerback 2.84742 1.39922 4.84988
upperback 0.501825 2.0444 2.77795
thorax -1.01307 1.0086 0.0636887
lowerneck -12.8014 -0.846947 -4.91704
upperneck 26.366 0.201935 -0.548818
head 10.5785 -0.442093 0.671675
rclavicle -1.03368e-014 -1.98785e-014
rhumerus -55.0032 -40.9893 -40.955
rradius 10.4161
rwrist 15.2392
rhand -5.72348 11.1929
rfingers 7.12502
rthumb 20.0982 -17.7876
lclavicle -1.03368e-014 -1.98785e-014
lhumerus -45.4232 10.5058 73.336
lradius 28.0449
lwrist -4.16534
lhand 0.594023 42.8265
lfingers 7.12502
lthumb 26.1592 71.0443
rfemur 10.4512 -1.47834 31.9692
rtibia 1.27222e-014
rfoot -12.2089 -6.74272
rtoes 1.91734
lfemur -42.4617 0.930839 -20.0298
ltibia 26.0421
lfoot -17.0846 -0.712381
ltoes 0.411904
628
root 0.0697671 17.2485 -9.96169 11.9299 2.61333 -5.70773
lowerback 2.90904 1.69478 4.68992
upperback 0.505976 2.43504 2.63273
thorax -1.03031 1.20346 -0.0112341
lowerneck -12.7258 -0.929448 -4.65687
upperneck 26.3586 0.0171932 -0.548418
head 10.5632 -0.500083 0.604278
rclavicle 4.51241e-014 2.74323e-014
rhumerus -55.5055 -41.1884 -40.548
rradius 10.2536
rwrist 15.5391
rhand -5.95737 10.68
rfingers 7.12502
rthumb 19.8733 -18.3239
lclavicle 4.51241e-014 2.74323e-014
lhumerus -45.4518 10.2439 73.1529
lradius 27.6781
lwrist -4.1579
lhand 0.704929 42.8067
lfingers 7.12502
lthumb 26.2654 71.0087
rfemur 11.0363 -1.25492 31.765
rtibia -1.59028e-014
rfoot -11.7652 -6.41771
rtoes 1.19296
lfemur -42.0661 1.05099 -20.1073
ltibia 26.1235
lfoot -16.8391 -0.305224
ltoes 1.28561
